# xmcd
#
# Track frame offsets:
#	150
#	16045
#	30557
#	42443
#	57121
#	72688
#	86312
#	98543
#	110220
#	124755
#	142733
#	156678
#	171991
#	185126
#
# Disc length: 2683 seconds
#
# Revision: 0
# Processed by: cddbd v1.5.2PL0 Copyright (c) Steve Scherf et al.
# Submitted via: EasyCDDAExtractor 2011.0.0.0
#
DISCID=c00a790e
DTITLE=Irwin Goodman - Vain Elämää cd12 Kootut Levytykset 1965 - 1990
DYEAR=1900
DGENRE=
TTITLE0=Dirly dirly dee
TTITLE1=Ikuinen kapinallinen
TTITLE2=Liverpoolin poikia
TTITLE3=Äiti, äiti
TTITLE4=Lauantai-illan draama
TTITLE5=Nuoruuden herkintä aikaa
TTITLE6=Sepalus auki
TTITLE7=Kaksi katupoikaa
TTITLE8=Hei bab bab
TTITLE9=Kusessa ollaan
TTITLE10=Yksi pitkä
TTITLE11=Me kaikki kiitämme tee-vee-ällää
TTITLE12=Henkipatto
TTITLE13=Viuhahdus (live)
EXTD=
EXTT0=
EXTT1=
EXTT2=
EXTT3=
EXTT4=
EXTT5=
EXTT6=
EXTT7=
EXTT8=
EXTT9=
EXTT10=
EXTT11=
EXTT12=
EXTT13=
PLAYORDER=
